<svg width="1831" height="640" viewBox="0 0 1831 640" fill="none" xmlns="http://www.w3.org/2000/svg">
<path d="M66.729 578.326L29.382 483.1H5.31L56.817 607.885H75.933L127.44 483.1H103.899L66.729 578.326ZM240.543 483.1H148.68V607H241.428V587.53H170.451V554.254H232.578V534.784H170.451V502.57H240.543V483.1ZM348.145 554.785V607H369.916V483.1H348.145V534.607H289.027V483.1H267.256V607H289.027V554.785H348.145ZM402.974 483.1V607H424.745V483.1H402.974ZM565.704 587.176L551.721 573.016C546.411 577.972 541.042 581.925 535.614 584.875C530.186 587.707 523.696 589.123 516.144 589.123C510.244 589.123 504.757 588.002 499.683 585.76C494.727 583.4 490.42 580.214 486.762 576.202C483.104 572.19 480.272 567.529 478.266 562.219C476.26 556.791 475.257 551.009 475.257 544.873C475.257 538.737 476.26 533.014 478.266 527.704C480.272 522.394 483.104 517.792 486.762 513.898C490.42 509.886 494.727 506.759 499.683 504.517C504.757 502.157 510.244 500.977 516.144 500.977C523.224 500.977 529.537 502.393 535.083 505.225C540.629 508.057 545.88 511.774 550.836 516.376L564.819 500.269C561.869 497.437 558.742 494.841 555.438 492.481C552.134 490.121 548.535 488.115 544.641 486.463C540.747 484.693 536.44 483.336 531.72 482.392C527.118 481.448 521.985 480.976 516.321 480.976C506.881 480.976 498.267 482.687 490.479 486.109C482.691 489.413 475.965 494.015 470.301 499.915C464.637 505.697 460.212 512.482 457.026 520.27C453.958 528.058 452.424 536.377 452.424 545.227C452.424 554.195 454.017 562.573 457.203 570.361C460.389 578.149 464.755 584.934 470.301 590.716C475.965 596.38 482.632 600.864 490.302 604.168C497.972 607.472 506.35 609.124 515.436 609.124C521.218 609.124 526.469 608.593 531.189 607.531C536.027 606.587 540.452 605.171 544.464 603.283C548.476 601.277 552.193 598.976 555.615 596.38C559.155 593.666 562.518 590.598 565.704 587.176ZM588.587 607H675.494V587.176H610.358V483.1H588.587V607ZM790.038 483.1H698.175V607H790.923V587.53H719.946V554.254H782.073V534.784H719.946V502.57H790.038V483.1ZM869.817 607H956.724V587.176H891.588V483.1H869.817V607ZM1096.39 544.873C1096.39 536.141 1094.8 527.881 1091.62 520.093C1088.43 512.305 1084 505.52 1078.34 499.738C1072.68 493.956 1065.89 489.413 1057.99 486.109C1050.08 482.687 1041.35 480.976 1031.79 480.976C1022.23 480.976 1013.5 482.687 1005.59 486.109C997.688 489.531 990.844 494.192 985.062 500.092C979.28 505.874 974.796 512.659 971.61 520.447C968.424 528.235 966.831 536.495 966.831 545.227C966.831 553.959 968.424 562.219 971.61 570.007C974.796 577.795 979.221 584.58 984.885 590.362C990.549 596.144 997.334 600.746 1005.24 604.168C1013.15 607.472 1021.88 609.124 1031.44 609.124C1040.99 609.124 1049.73 607.413 1057.63 603.991C1065.54 600.569 1072.38 595.967 1078.16 590.185C1083.95 584.285 1088.43 577.441 1091.62 569.653C1094.8 561.865 1096.39 553.605 1096.39 544.873ZM1073.56 545.227C1073.56 551.245 1072.5 556.968 1070.38 562.396C1068.37 567.706 1065.54 572.367 1061.88 576.379C1058.22 580.273 1053.8 583.4 1048.6 585.76C1043.53 588.002 1037.93 589.123 1031.79 589.123C1025.65 589.123 1019.99 587.943 1014.8 585.583C1009.61 583.223 1005.12 580.037 1001.35 576.025C997.688 572.013 994.797 567.352 992.673 562.042C990.667 556.614 989.664 550.891 989.664 544.873C989.664 538.855 990.667 533.191 992.673 527.881C994.797 522.453 997.688 517.792 1001.35 513.898C1005 509.886 1009.37 506.759 1014.44 504.517C1019.64 502.157 1025.3 500.977 1031.44 500.977C1037.57 500.977 1043.24 502.157 1048.43 504.517C1053.62 506.877 1058.04 510.063 1061.7 514.075C1065.48 518.087 1068.37 522.807 1070.38 528.235C1072.5 533.545 1073.56 539.209 1073.56 545.227ZM1233.15 589.831V537.793H1180.4V556.732H1212.08V579.919C1208.31 582.751 1203.82 585.052 1198.63 586.822C1193.56 588.474 1188.07 589.3 1182.17 589.3C1175.8 589.3 1170.02 588.179 1164.82 585.937C1159.75 583.695 1155.33 580.627 1151.55 576.733C1147.89 572.721 1145.06 568.001 1143.05 562.573C1141.05 557.145 1140.04 551.245 1140.04 544.873C1140.04 538.855 1141.05 533.191 1143.05 527.881C1145.18 522.571 1148.01 517.91 1151.55 513.898C1155.21 509.886 1159.46 506.759 1164.29 504.517C1169.25 502.157 1174.56 500.977 1180.22 500.977C1184.12 500.977 1187.66 501.331 1190.84 502.039C1194.15 502.629 1197.16 503.514 1199.87 504.694C1202.58 505.756 1205.18 507.113 1207.66 508.765C1210.14 510.417 1212.56 512.246 1214.92 514.252L1228.72 497.791C1225.54 495.077 1222.23 492.717 1218.81 490.711C1215.51 488.587 1211.97 486.817 1208.19 485.401C1204.41 483.985 1200.28 482.923 1195.8 482.215C1191.43 481.389 1186.54 480.976 1181.11 480.976C1171.79 480.976 1163.17 482.687 1155.27 486.109C1147.48 489.531 1140.75 494.192 1135.09 500.092C1129.42 505.874 1125 512.659 1121.81 520.447C1118.75 528.235 1117.21 536.495 1117.21 545.227C1117.21 554.313 1118.75 562.75 1121.81 570.538C1124.88 578.326 1129.19 585.111 1134.73 590.893C1140.4 596.557 1147.18 601.041 1155.09 604.345C1163 607.531 1171.79 609.124 1181.46 609.124C1186.89 609.124 1192.08 608.593 1197.04 607.531C1201.99 606.587 1206.6 605.23 1210.84 603.46C1215.21 601.69 1219.22 599.625 1222.88 597.265C1226.66 594.905 1230.08 592.427 1233.15 589.831ZM1262.74 483.1V607H1284.51V483.1H1262.74ZM1336.08 515.491C1336.08 511.361 1337.85 507.88 1341.39 505.048C1344.93 502.098 1349.89 500.623 1356.26 500.623C1361.93 500.623 1367.53 501.744 1373.08 503.986C1378.62 506.11 1384.23 509.237 1389.89 513.367L1401.57 496.906C1395.2 491.832 1388.36 487.997 1381.04 485.401C1373.84 482.687 1365.7 481.33 1356.62 481.33C1350.48 481.33 1344.82 482.215 1339.62 483.985C1334.43 485.637 1329.95 488.056 1326.17 491.242C1322.51 494.428 1319.62 498.263 1317.5 502.747C1315.37 507.113 1314.31 512.01 1314.31 517.438C1314.31 523.22 1315.2 528.117 1316.97 532.129C1318.86 536.141 1321.51 539.563 1324.93 542.395C1328.47 545.227 1332.78 547.587 1337.85 549.475C1343.05 551.363 1348.95 553.074 1355.55 554.608C1361.34 556.024 1366 557.381 1369.54 558.679C1373.19 559.977 1376.03 561.393 1378.03 562.927C1380.16 564.343 1381.57 565.936 1382.28 567.706C1383.11 569.476 1383.52 571.482 1383.52 573.724C1383.52 578.562 1381.51 582.397 1377.5 585.229C1373.61 588.061 1368.3 589.477 1361.57 589.477C1353.78 589.477 1346.82 588.12 1340.69 585.406C1334.55 582.574 1328.47 578.562 1322.45 573.37L1309.36 588.946C1316.79 595.672 1324.87 600.687 1333.61 603.991C1342.34 607.177 1351.48 608.77 1361.04 608.77C1367.53 608.77 1373.49 607.944 1378.92 606.292C1384.35 604.64 1389.01 602.221 1392.9 599.035C1396.79 595.849 1399.8 591.955 1401.93 587.353C1404.17 582.751 1405.29 577.5 1405.29 571.6C1405.29 566.408 1404.41 561.924 1402.64 558.148C1400.98 554.254 1398.51 550.891 1395.2 548.059C1391.9 545.109 1387.71 542.631 1382.63 540.625C1377.68 538.619 1371.96 536.79 1365.47 535.138C1359.57 533.722 1354.67 532.365 1350.77 531.067C1347 529.769 1343.99 528.353 1341.75 526.819C1339.62 525.285 1338.15 523.633 1337.32 521.863C1336.5 520.093 1336.08 517.969 1336.08 515.491ZM1480.69 503.278H1519.99V483.1H1419.45V503.278H1458.74V607H1480.69V503.278ZM1544.31 483.1V607H1566.08V483.1H1544.31ZM1707.04 587.176L1693.06 573.016C1687.75 577.972 1682.38 581.925 1676.95 584.875C1671.53 587.707 1665.04 589.123 1657.48 589.123C1651.58 589.123 1646.1 588.002 1641.02 585.76C1636.07 583.4 1631.76 580.214 1628.1 576.202C1624.44 572.19 1621.61 567.529 1619.61 562.219C1617.6 556.791 1616.6 551.009 1616.6 544.873C1616.6 538.737 1617.6 533.014 1619.61 527.704C1621.61 522.394 1624.44 517.792 1628.1 513.898C1631.76 509.886 1636.07 506.759 1641.02 504.517C1646.1 502.157 1651.58 500.977 1657.48 500.977C1664.56 500.977 1670.88 502.393 1676.42 505.225C1681.97 508.057 1687.22 511.774 1692.18 516.376L1706.16 500.269C1703.21 497.437 1700.08 494.841 1696.78 492.481C1693.47 490.121 1689.87 488.115 1685.98 486.463C1682.09 484.693 1677.78 483.336 1673.06 482.392C1668.46 481.448 1663.32 480.976 1657.66 480.976C1648.22 480.976 1639.61 482.687 1631.82 486.109C1624.03 489.413 1617.3 494.015 1611.64 499.915C1605.98 505.697 1601.55 512.482 1598.37 520.27C1595.3 528.058 1593.76 536.377 1593.76 545.227C1593.76 554.195 1595.36 562.573 1598.54 570.361C1601.73 578.149 1606.09 584.934 1611.64 590.716C1617.3 596.38 1623.97 600.864 1631.64 604.168C1639.31 607.472 1647.69 609.124 1656.78 609.124C1662.56 609.124 1667.81 608.593 1672.53 607.531C1677.37 606.587 1681.79 605.171 1685.8 603.283C1689.82 601.277 1693.53 598.976 1696.95 596.38C1700.49 593.666 1703.86 590.598 1707.04 587.176ZM1748.33 515.491C1748.33 511.361 1750.1 507.88 1753.64 505.048C1757.18 502.098 1762.14 500.623 1768.51 500.623C1774.18 500.623 1779.78 501.744 1785.33 503.986C1790.87 506.11 1796.48 509.237 1802.14 513.367L1813.82 496.906C1807.45 491.832 1800.61 487.997 1793.29 485.401C1786.09 482.687 1777.95 481.33 1768.87 481.33C1762.73 481.33 1757.07 482.215 1751.87 483.985C1746.68 485.637 1742.2 488.056 1738.42 491.242C1734.76 494.428 1731.87 498.263 1729.75 502.747C1727.63 507.113 1726.56 512.01 1726.56 517.438C1726.56 523.22 1727.45 528.117 1729.22 532.129C1731.11 536.141 1733.76 539.563 1737.18 542.395C1740.72 545.227 1745.03 547.587 1750.1 549.475C1755.3 551.363 1761.2 553.074 1767.8 554.608C1773.59 556.024 1778.25 557.381 1781.79 558.679C1785.45 559.977 1788.28 561.393 1790.28 562.927C1792.41 564.343 1793.82 565.936 1794.53 567.706C1795.36 569.476 1795.77 571.482 1795.77 573.724C1795.77 578.562 1793.76 582.397 1789.75 585.229C1785.86 588.061 1780.55 589.477 1773.82 589.477C1766.03 589.477 1759.07 588.12 1752.94 585.406C1746.8 582.574 1740.72 578.562 1734.71 573.37L1721.61 588.946C1729.04 595.672 1737.12 600.687 1745.86 603.991C1754.59 607.177 1763.73 608.77 1773.29 608.77C1779.78 608.77 1785.74 607.944 1791.17 606.292C1796.6 604.64 1801.26 602.221 1805.15 599.035C1809.05 595.849 1812.05 591.955 1814.18 587.353C1816.42 582.751 1817.54 577.5 1817.54 571.6C1817.54 566.408 1816.66 561.924 1814.89 558.148C1813.23 554.254 1810.76 550.891 1807.45 548.059C1804.15 545.109 1799.96 542.631 1794.89 540.625C1789.93 538.619 1784.21 536.79 1777.72 535.138C1771.82 533.722 1766.92 532.365 1763.03 531.067C1759.25 529.769 1756.24 528.353 1754 526.819C1751.87 525.285 1750.4 523.633 1749.57 521.863C1748.75 520.093 1748.33 517.969 1748.33 515.491Z" fill="#DDA842"/>
<path d="M778.708 395.836L646.506 42.411C637.04 16.7671 613.376 0 587.188 0C560.684 0 537.02 17.0959 527.555 42.7397L396.299 397.151C394.405 400.767 395.036 403.727 397.245 405.37C399.454 407.343 402.608 408 405.449 408H483.382C490.007 408 494.74 404.713 496.949 397.809C500.104 388.603 503.575 379.068 507.045 369.863C510.517 360.658 513.672 351.453 517.142 341.918L546.485 254.137C549.957 244.603 553.112 234.411 556.582 223.891C560.053 213.37 563.524 202.521 566.679 191.343C570.15 180.494 573.62 169.316 576.776 158.795C580.247 147.945 583.717 137.754 587.188 128.548L627.259 254.137L657.233 341.918C660.388 351.453 663.859 360.658 667.014 369.863C670.485 379.068 673.955 388.603 677.426 397.809C678.688 401.425 679.95 404.384 682.159 405.699C684.368 407.672 687.838 408 691.94 408H767.665C772.398 408 775.553 407.013 777.761 404.713C779.339 402.412 779.97 399.452 778.708 395.836Z" fill="#008041"/>
<path d="M1830.33 395.836L1698.13 42.411C1688.66 16.7671 1665 0 1638.81 0C1612.31 0 1588.65 17.0959 1579.18 42.7397L1447.92 397.151C1446.03 400.767 1446.66 403.727 1448.87 405.37C1451.08 407.343 1454.24 408 1457.08 408H1535.01C1541.64 408 1546.37 404.713 1548.58 397.809C1551.72 388.603 1555.2 379.068 1558.67 369.863C1562.14 360.658 1565.29 351.453 1568.77 341.918L1598.11 254.137C1601.58 244.603 1604.73 234.411 1608.21 223.891C1611.68 213.37 1615.15 202.521 1618.3 191.343C1621.78 180.494 1625.25 169.316 1628.4 158.795C1631.87 147.945 1635.35 137.754 1638.81 128.548L1678.89 254.137L1708.86 341.918C1712.01 351.453 1715.49 360.658 1718.64 369.863C1722.11 379.068 1725.58 388.603 1729.05 397.809C1730.31 401.425 1731.57 404.384 1733.78 405.699C1735.99 407.672 1739.46 408 1743.56 408H1819.29C1824.02 408 1827.18 407.013 1829.38 404.713C1830.96 402.412 1831.59 399.452 1830.33 395.836Z" fill="#008041"/>
<path d="M1083.52 314.302C1081.31 312 1078.16 311.014 1075.33 311.014H930.184V11.8357C930.184 8.21918 928.923 5.26028 926.083 3.28767C923.874 0.986302 920.72 0 917.879 0H839.946C835.845 0 833.321 0.986302 831.112 3.61644C828.904 5.91782 827.957 8.54796 827.957 11.8357V396.165C827.957 404.384 832.058 408 839.315 408H1075C1078.47 408 1081.63 406.685 1083.84 403.727C1085.73 401.425 1087 398.795 1087 395.507V323.178C1087.31 319.561 1085.73 316.603 1083.52 314.302Z" fill="#008041"/>
<path d="M1398.71 314.302C1396.51 312 1393.98 311.014 1390.82 311.014H1245.68V11.8357C1245.38 8.21918 1243.8 5.26028 1241.27 3.28767C1239.07 0.986302 1236.54 0 1233.38 0H1155.14C1151.67 0 1148.51 0.986302 1146.93 3.61644C1144.72 5.91782 1143.46 8.54796 1143.46 11.8357V396.165C1143.46 404.384 1147.56 408 1155.45 408H1391.14C1394.61 408 1397.45 406.685 1399.35 403.727C1401.55 401.425 1402.5 398.795 1402.5 395.507V323.178C1402.19 319.561 1400.92 316.603 1398.71 314.302Z" fill="#008041"/>
<path d="M348.338 396.49L222.445 199.559C222.13 199.888 222.13 199.888 221.499 200.546C194.995 223.888 164.705 239.011 135.362 249.203C144.197 263.011 152.4 275.175 159.657 287.668C167.229 300.162 174.487 311.997 181.743 323.833C189.315 336.327 196.257 348.161 204.145 359.997C211.717 372.49 220.552 384.655 229.702 398.135C231.596 401.422 234.119 403.723 236.643 405.367C239.799 407.34 242.638 407.998 245.478 407.998H345.183C349.284 407.998 350.861 406.683 350.861 403.723C350.861 402.08 349.914 399.778 348.338 396.49Z" fill="#008041"/>
<path d="M102.228 163.068V12.4932C102.228 8.87672 100.966 5.58905 97.8109 3.94521C94.6558 1.31507 92.1317 0 89.2919 0H11.6742C8.20352 0 5.04835 1.31507 3.15518 3.61644C0.946585 5.91781 0 9.20549 0 12.1644V170.959V262.028V395.836C0 404.055 4.10176 407.671 11.9898 407.671H89.2919C97.496 407.671 101.913 404.055 101.913 395.836V257.425L102.228 163.068Z" fill="#008041"/>
<path d="M305.759 12.822C302.603 91.7261 270.105 156.165 222.777 199.561C222.462 199.891 222.462 199.891 221.83 200.548C195.327 223.891 165.037 239.014 135.694 249.205H135.378C124.335 252.493 113.292 255.123 102.564 257.425C76.0604 263.014 52.081 264.329 32.5187 264.329C18.9515 264.329 7.90828 263.343 0.335815 262.356V171.288C12.641 172.274 57.4447 175.891 102.248 163.068C124.335 157.151 145.79 147.617 163.459 131.836C163.775 131.507 163.775 131.507 164.406 130.85C193.118 104.877 215.204 63.7809 217.729 11.8357C217.729 5.26028 222.462 0 228.771 0H293.768C300.395 0 305.759 5.91781 305.759 12.822Z" fill="url(#paint0_linear_465_139)"/>
<defs>
<linearGradient id="paint0_linear_465_139" x1="0.156596" y1="132.195" x2="305.622" y2="132.195" gradientUnits="userSpaceOnUse">
<stop stop-color="#C67D29"/>
<stop offset="0.2865" stop-color="white"/>
<stop offset="0.5056" stop-color="#FDDC60"/>
<stop offset="1" stop-color="#BD6828"/>
</linearGradient>
</defs>
</svg>
