<svg width="1698" height="607" viewBox="0 0 1698 607" fill="none" xmlns="http://www.w3.org/2000/svg">
<path d="M838.314 38.1012L826.322 0.527383L13.0765 16.6528L838.314 38.1012Z" fill="#DDA842"/>
<path d="M1687.55 420.446H1668.66C1659.41 384.353 1639.67 308.831 1634.73 295.484C1629.78 282.137 1614.13 269.2 1606.92 264.4L1296.13 249.528L1246.38 152.126H1366.3L1338.76 124.895L1064.67 88.4383H1216.53C1211.99 80.6912 1201.56 62.8929 1196.11 53.6764C1190.66 44.4598 1173.76 34.9393 1165.99 31.331L896.555 34.3741C907.322 78.7887 936.243 192.157 965.79 290.315C995.337 388.474 909.931 413.647 863.535 413.963H11V378.75H863.535C946.342 378.75 941.585 319.794 928.856 290.315L846.451 0.284118C938.6 0.0697159 1131.51 -0.230447 1165.99 0.284118C1200.47 0.798684 1218.95 23.2252 1223.88 34.3741L1256.04 88.4383C1273.19 88.7541 1313.74 89.1962 1338.76 88.4383C1363.77 87.6803 1388.65 119.072 1397.97 134.862L1445.25 233.418C1482.56 232.934 1567.12 232.256 1606.92 233.418C1646.73 234.58 1663.21 259.808 1666.48 272.276L1687.55 420.446Z" fill="#008041"/>
<path d="M908.004 309.934L17.6266 327.197L908.004 344.06C912.526 337.993 918.857 322.674 908.004 309.934Z" fill="#DDA842"/>
<g clip-path="url(#clip0_464_129)">
<path d="M384.417 258.554L321.981 91.4924C317.511 79.3706 306.335 71.4449 293.967 71.4449C281.45 71.4449 270.274 79.526 265.804 91.6477L203.816 259.176C202.922 260.885 203.22 262.284 204.263 263.061C205.306 263.994 206.796 264.304 208.138 264.304H244.943C248.072 264.304 250.307 262.751 251.35 259.487C252.84 255.135 254.48 250.628 256.119 246.277C257.758 241.926 259.248 237.575 260.887 233.068L274.745 191.574C276.384 187.068 277.874 182.25 279.513 177.277C281.153 172.304 282.791 167.175 284.282 161.892C285.921 156.763 287.56 151.479 289.05 146.506C290.689 141.378 292.328 136.56 293.967 132.209L312.892 191.574L327.048 233.068C328.538 237.575 330.177 241.926 331.667 246.277C333.306 250.628 334.945 255.135 336.584 259.487C337.18 261.196 337.776 262.595 338.819 263.216C339.862 264.149 341.501 264.304 343.439 264.304H379.201C381.436 264.304 382.926 263.838 383.969 262.751C384.714 261.663 385.012 260.264 384.417 258.554Z" fill="#008041"/>
<path d="M881.065 258.554L818.632 91.4924C814.16 79.3706 802.984 71.4449 790.618 71.4449C778.101 71.4449 766.925 79.526 762.454 91.6477L700.464 259.176C699.571 260.885 699.869 262.284 700.912 263.061C701.956 263.994 703.448 264.304 704.789 264.304H741.594C744.724 264.304 746.957 262.751 748.001 259.487C749.488 255.135 751.131 250.628 752.77 246.277C754.408 241.926 755.895 237.575 757.539 233.068L771.397 191.574C773.035 187.068 774.522 182.25 776.166 177.277C777.804 172.304 779.442 167.175 780.929 161.892C782.573 156.763 784.211 151.479 785.698 146.506C787.337 141.378 788.98 136.56 790.618 132.209L809.542 191.574L823.698 233.068C825.185 237.575 826.828 241.926 828.316 246.277C829.954 250.628 831.597 255.135 833.236 259.487C833.83 261.196 834.425 262.595 835.469 263.216C836.512 264.149 838.151 264.304 840.086 264.304H875.853C878.086 264.304 879.578 263.838 880.617 262.751C881.363 261.663 881.66 260.264 881.065 258.554Z" fill="#008041"/>
<path d="M528.371 220.014C527.328 218.926 525.841 218.459 524.5 218.459H455.954V77.0396C455.954 75.3301 455.358 73.9314 454.017 72.999C452.974 71.9111 451.484 71.4449 450.143 71.4449H413.337C411.4 71.4449 410.208 71.9111 409.165 73.1544C408.122 74.2422 407.675 75.4855 407.675 77.0396V258.71C407.675 262.595 409.612 264.304 413.039 264.304H524.348C525.987 264.304 527.479 263.683 528.522 262.284C529.415 261.196 530.015 259.953 530.015 258.399V224.209C530.161 222.5 529.415 221.101 528.371 220.014Z" fill="#008041"/>
<path d="M677.224 220.014C676.186 218.926 674.991 218.459 673.499 218.459H604.955V77.0396C604.809 75.3301 604.063 73.9314 602.868 72.999C601.83 71.9111 600.635 71.4449 599.143 71.4449H562.192C560.553 71.4449 559.061 71.9111 558.315 73.1544C557.272 74.2422 556.677 75.4855 556.677 77.0396V258.71C556.677 262.595 558.613 264.304 562.338 264.304H673.65C675.288 264.304 676.629 263.683 677.527 262.284C678.565 261.196 679.014 259.953 679.014 258.399V224.209C678.868 222.5 678.268 221.101 677.224 220.014Z" fill="#008041"/>
<path d="M181.166 258.864L121.71 165.775C121.561 165.931 121.561 165.931 121.264 166.242C108.747 177.275 94.4415 184.424 80.5836 189.242C84.7561 195.769 88.6301 201.519 92.0576 207.424C95.6337 213.33 99.0611 218.924 102.488 224.519C106.064 230.425 109.342 236.019 113.068 241.614C116.644 247.519 120.816 253.269 125.138 259.641C126.032 261.195 127.224 262.283 128.416 263.06C129.906 263.992 131.247 264.303 132.588 264.303H179.676C181.612 264.303 182.357 263.682 182.357 262.283C182.357 261.506 181.91 260.418 181.166 258.864Z" fill="#008041"/>
<path d="M64.9355 148.526V77.3503C64.9355 75.6409 64.3397 74.0868 62.8495 73.3098C61.3595 72.0665 60.1674 71.4449 58.8263 71.4449H22.1698C20.5307 71.4449 19.0406 72.0665 18.1465 73.1544C17.1035 74.2422 16.6564 75.7963 16.6564 77.1949V152.256V195.304V258.554C16.6564 262.44 18.5936 264.149 22.3188 264.149H58.8263C62.7008 264.149 64.7868 262.44 64.7868 258.554V193.128L64.9355 148.526Z" fill="#008041"/>
<path d="M161.057 77.5058C159.567 114.803 144.219 145.263 121.867 165.776C121.718 165.932 121.718 165.932 121.42 166.243C108.903 177.277 94.5983 184.425 80.7403 189.243H80.5911C75.3761 190.797 70.1606 192.04 65.0943 193.128C52.5774 195.77 41.2527 196.392 32.014 196.392C25.6066 196.392 20.3912 195.926 16.815 195.459V152.412C22.6264 152.878 43.7858 154.587 64.9451 148.526C75.3761 145.729 85.5087 141.223 93.8532 133.763C94.0024 133.607 94.0024 133.607 94.3003 133.297C107.86 121.02 118.291 101.594 119.483 77.0396C119.483 73.9314 121.718 71.4449 124.698 71.4449H155.394C158.524 71.4449 161.057 74.2422 161.057 77.5058Z" fill="url(#paint0_linear_464_129)"/>
</g>
<path d="M65.975 543.296L29.05 449.146H5.25L56.175 572.521H75.075L126 449.146H102.725L65.975 543.296ZM237.825 449.146H147V571.646H238.7V552.396H168.525V519.496H229.95V500.246H168.525V468.396H237.825V449.146ZM344.211 520.021V571.646H365.736V449.146H344.211V500.071H285.761V449.146H264.236V571.646H285.761V520.021H344.211ZM398.42 449.146V571.646H419.945V449.146H398.42ZM559.312 552.046L545.487 538.046C540.237 542.946 534.929 546.855 529.562 549.771C524.196 552.571 517.779 553.971 510.312 553.971C504.479 553.971 499.054 552.863 494.037 550.646C489.137 548.313 484.879 545.163 481.262 541.196C477.646 537.23 474.846 532.621 472.862 527.371C470.879 522.005 469.887 516.288 469.887 510.221C469.887 504.155 470.879 498.496 472.862 493.246C474.846 487.996 477.646 483.446 481.262 479.596C484.879 475.63 489.137 472.538 494.037 470.321C499.054 467.988 504.479 466.821 510.312 466.821C517.312 466.821 523.554 468.221 529.037 471.021C534.521 473.821 539.712 477.496 544.612 482.046L558.437 466.121C555.521 463.321 552.429 460.755 549.162 458.421C545.896 456.088 542.337 454.105 538.487 452.471C534.637 450.721 530.379 449.38 525.712 448.446C521.162 447.513 516.087 447.046 510.487 447.046C501.154 447.046 492.637 448.738 484.937 452.121C477.237 455.388 470.587 459.938 464.987 465.771C459.387 471.488 455.012 478.196 451.862 485.896C448.829 493.596 447.312 501.821 447.312 510.571C447.312 519.438 448.887 527.721 452.037 535.421C455.187 543.121 459.504 549.83 464.987 555.546C470.587 561.146 477.179 565.58 484.762 568.846C492.346 572.113 500.629 573.746 509.612 573.746C515.329 573.746 520.521 573.221 525.187 572.171C529.971 571.238 534.346 569.838 538.312 567.971C542.279 565.988 545.954 563.713 549.337 561.146C552.837 558.463 556.162 555.43 559.312 552.046ZM581.937 571.646H667.862V552.046H603.462V449.146H581.937V571.646ZM781.111 449.146H690.286V571.646H781.986V552.396H711.811V519.496H773.236V500.246H711.811V468.396H781.111V449.146ZM859.988 571.646H945.913V552.046H881.513V449.146H859.988V571.646ZM1084.01 510.221C1084.01 501.588 1082.43 493.421 1079.28 485.721C1076.13 478.021 1071.76 471.313 1066.16 465.596C1060.56 459.88 1053.85 455.388 1046.03 452.121C1038.21 448.738 1029.58 447.046 1020.13 447.046C1010.68 447.046 1002.05 448.738 994.231 452.121C986.414 455.505 979.648 460.113 973.931 465.946C968.214 471.663 963.781 478.371 960.631 486.071C957.481 493.771 955.906 501.938 955.906 510.571C955.906 519.205 957.481 527.371 960.631 535.071C963.781 542.771 968.156 549.48 973.756 555.196C979.356 560.913 986.064 565.463 993.881 568.846C1001.7 572.113 1010.33 573.746 1019.78 573.746C1029.23 573.746 1037.86 572.055 1045.68 568.671C1053.5 565.288 1060.26 560.738 1065.98 555.021C1071.7 549.188 1076.13 542.421 1079.28 534.721C1082.43 527.021 1084.01 518.855 1084.01 510.221ZM1061.43 510.571C1061.43 516.521 1060.38 522.18 1058.28 527.546C1056.3 532.796 1053.5 537.405 1049.88 541.371C1046.26 545.221 1041.89 548.313 1036.76 550.646C1031.74 552.863 1026.2 553.971 1020.13 553.971C1014.06 553.971 1008.46 552.805 1003.33 550.471C998.198 548.138 993.764 544.988 990.031 541.021C986.414 537.055 983.556 532.446 981.456 527.196C979.473 521.83 978.481 516.171 978.481 510.221C978.481 504.271 979.473 498.671 981.456 493.421C983.556 488.055 986.414 483.446 990.031 479.596C993.648 475.63 997.964 472.538 1002.98 470.321C1008.11 467.988 1013.71 466.821 1019.78 466.821C1025.85 466.821 1031.45 467.988 1036.58 470.321C1041.71 472.655 1046.09 475.805 1049.71 479.771C1053.44 483.738 1056.3 488.405 1058.28 493.771C1060.38 499.021 1061.43 504.621 1061.43 510.571ZM1219.21 554.671V503.221H1167.06V521.946H1198.39V544.871C1194.65 547.671 1190.22 549.946 1185.09 551.696C1180.07 553.33 1174.65 554.146 1168.81 554.146C1162.51 554.146 1156.8 553.038 1151.66 550.821C1146.65 548.605 1142.27 545.571 1138.54 541.721C1134.92 537.755 1132.12 533.088 1130.14 527.721C1128.15 522.355 1127.16 516.521 1127.16 510.221C1127.16 504.271 1128.15 498.671 1130.14 493.421C1132.24 488.171 1135.04 483.563 1138.54 479.596C1142.15 475.63 1146.35 472.538 1151.14 470.321C1156.04 467.988 1161.29 466.821 1166.89 466.821C1170.74 466.821 1174.24 467.171 1177.39 467.871C1180.65 468.455 1183.63 469.33 1186.31 470.496C1189 471.546 1191.56 472.888 1194.01 474.521C1196.46 476.155 1198.85 477.963 1201.19 479.946L1214.84 463.671C1211.69 460.988 1208.42 458.655 1205.04 456.671C1201.77 454.571 1198.27 452.821 1194.54 451.421C1190.8 450.021 1186.72 448.971 1182.29 448.271C1177.97 447.455 1173.13 447.046 1167.76 447.046C1158.55 447.046 1150.03 448.738 1142.21 452.121C1134.51 455.505 1127.86 460.113 1122.26 465.946C1116.66 471.663 1112.29 478.371 1109.14 486.071C1106.1 493.771 1104.59 501.938 1104.59 510.571C1104.59 519.555 1106.1 527.896 1109.14 535.596C1112.17 543.296 1116.43 550.005 1121.91 555.721C1127.51 561.321 1134.22 565.755 1142.04 569.021C1149.85 572.171 1158.55 573.746 1168.11 573.746C1173.48 573.746 1178.61 573.221 1183.51 572.171C1188.41 571.238 1192.96 569.896 1197.16 568.146C1201.48 566.396 1205.45 564.355 1209.06 562.021C1212.8 559.688 1216.18 557.238 1219.21 554.671ZM1248.47 449.146V571.646H1269.99V449.146H1248.47ZM1320.99 481.171C1320.99 477.088 1322.74 473.646 1326.24 470.846C1329.74 467.93 1334.64 466.471 1340.94 466.471C1346.54 466.471 1352.08 467.58 1357.56 469.796C1363.04 471.896 1368.59 474.988 1374.19 479.071L1385.74 462.796C1379.44 457.78 1372.67 453.988 1365.44 451.421C1358.32 448.738 1350.27 447.396 1341.29 447.396C1335.22 447.396 1329.62 448.271 1324.49 450.021C1319.35 451.655 1314.92 454.046 1311.19 457.196C1307.57 460.346 1304.71 464.138 1302.61 468.571C1300.51 472.888 1299.46 477.73 1299.46 483.096C1299.46 488.813 1300.34 493.655 1302.09 497.621C1303.95 501.588 1306.58 504.971 1309.96 507.771C1313.46 510.571 1317.72 512.905 1322.74 514.771C1327.87 516.638 1333.7 518.33 1340.24 519.846C1345.95 521.246 1350.56 522.588 1354.06 523.871C1357.68 525.155 1360.48 526.555 1362.46 528.071C1364.56 529.471 1365.96 531.046 1366.66 532.796C1367.48 534.546 1367.89 536.53 1367.89 538.746C1367.89 543.53 1365.9 547.321 1361.94 550.121C1358.09 552.921 1352.84 554.321 1346.19 554.321C1338.49 554.321 1331.6 552.98 1325.54 550.296C1319.47 547.496 1313.46 543.53 1307.51 538.396L1294.56 553.796C1301.91 560.446 1309.9 565.405 1318.54 568.671C1327.17 571.821 1336.21 573.396 1345.66 573.396C1352.08 573.396 1357.97 572.58 1363.34 570.946C1368.7 569.313 1373.31 566.921 1377.16 563.771C1381.01 560.621 1383.99 556.771 1386.09 552.221C1388.3 547.671 1389.41 542.48 1389.41 536.646C1389.41 531.513 1388.54 527.08 1386.79 523.346C1385.15 519.496 1382.7 516.171 1379.44 513.371C1376.17 510.455 1372.03 508.005 1367.01 506.021C1362.11 504.038 1356.45 502.23 1350.04 500.596C1344.2 499.196 1339.36 497.855 1335.51 496.571C1331.78 495.288 1328.8 493.888 1326.59 492.371C1324.49 490.855 1323.03 489.221 1322.21 487.471C1321.39 485.721 1320.99 483.621 1320.99 481.171ZM1463.96 469.096H1502.81V449.146H1403.41V469.096H1442.26V571.646H1463.96V469.096ZM1526.86 449.146V571.646H1548.39V449.146H1526.86ZM1687.75 552.046L1673.93 538.046C1668.68 542.946 1663.37 546.855 1658 549.771C1652.64 552.571 1646.22 553.971 1638.75 553.971C1632.92 553.971 1627.5 552.863 1622.48 550.646C1617.58 548.313 1613.32 545.163 1609.7 541.196C1606.09 537.23 1603.29 532.621 1601.3 527.371C1599.32 522.005 1598.33 516.288 1598.33 510.221C1598.33 504.155 1599.32 498.496 1601.3 493.246C1603.29 487.996 1606.09 483.446 1609.7 479.596C1613.32 475.63 1617.58 472.538 1622.48 470.321C1627.5 467.988 1632.92 466.821 1638.75 466.821C1645.75 466.821 1652 468.221 1657.48 471.021C1662.96 473.821 1668.15 477.496 1673.05 482.046L1686.88 466.121C1683.96 463.321 1680.87 460.755 1677.6 458.421C1674.34 456.088 1670.78 454.105 1666.93 452.471C1663.08 450.721 1658.82 449.38 1654.15 448.446C1649.6 447.513 1644.53 447.046 1638.93 447.046C1629.6 447.046 1621.08 448.738 1613.38 452.121C1605.68 455.388 1599.03 459.938 1593.43 465.771C1587.83 471.488 1583.45 478.196 1580.3 485.896C1577.27 493.596 1575.75 501.821 1575.75 510.571C1575.75 519.438 1577.33 527.721 1580.48 535.421C1583.63 543.121 1587.95 549.83 1593.43 555.546C1599.03 561.146 1605.62 565.58 1613.2 568.846C1620.79 572.113 1629.07 573.746 1638.05 573.746C1643.77 573.746 1648.96 573.221 1653.63 572.171C1658.41 571.238 1662.79 569.838 1666.75 567.971C1670.72 565.988 1674.4 563.713 1677.78 561.146C1681.28 558.463 1684.6 555.43 1687.75 552.046Z" fill="#DDA842"/>
<defs>
<linearGradient id="paint0_linear_464_129" x1="16.7304" y1="133.933" x2="160.992" y2="133.933" gradientUnits="userSpaceOnUse">
<stop stop-color="#C67D29"/>
<stop offset="0.2865" stop-color="white"/>
<stop offset="0.5056" stop-color="#FDDC60"/>
<stop offset="1" stop-color="#BD6828"/>
</linearGradient>
<clipPath id="clip0_464_129">
<rect width="873.619" height="277.556" fill="white" transform="translate(11 71.4449)"/>
</clipPath>
</defs>
</svg>
