<svg width="1698" height="622" viewBox="0 0 1698 622" fill="none" xmlns="http://www.w3.org/2000/svg">
<path d="M838.314 38.1012L826.322 0.527383L13.0765 16.6528L838.314 38.1012Z" fill="#DDA842"/>
<path d="M1687.55 420.446H1668.66C1659.41 384.353 1639.67 308.831 1634.73 295.484C1629.78 282.137 1614.13 269.2 1606.92 264.4L1296.13 249.528L1246.38 152.126H1366.3L1338.76 124.895L1064.67 88.4383H1216.53C1211.99 80.6912 1201.56 62.8929 1196.11 53.6764C1190.66 44.4598 1173.76 34.9393 1165.99 31.331L896.555 34.3741C907.322 78.7887 936.243 192.157 965.79 290.315C995.337 388.474 909.931 413.647 863.535 413.963H11V378.75H863.535C946.342 378.75 941.585 319.794 928.856 290.315L846.451 0.284118C938.6 0.0697159 1131.51 -0.230447 1165.99 0.284118C1200.47 0.798684 1218.95 23.2252 1223.88 34.3741L1256.04 88.4383C1273.19 88.7541 1313.74 89.1962 1338.76 88.4383C1363.77 87.6803 1388.65 119.072 1397.97 134.862L1445.25 233.418C1482.56 232.934 1567.12 232.256 1606.92 233.418C1646.73 234.58 1663.21 259.808 1666.48 272.276L1687.55 420.446Z" fill="#008041"/>
<path d="M908.004 309.934L17.6266 327.197L908.004 344.06C912.526 337.993 918.857 322.674 908.004 309.934Z" fill="#DDA842"/>
<g clip-path="url(#clip0_464_129)">
<path d="M384.417 258.554L321.981 91.4924C317.511 79.3706 306.335 71.4449 293.967 71.4449C281.45 71.4449 270.274 79.526 265.804 91.6477L203.816 259.176C202.922 260.885 203.22 262.284 204.263 263.061C205.306 263.994 206.796 264.304 208.138 264.304H244.943C248.072 264.304 250.307 262.751 251.35 259.487C252.84 255.135 254.48 250.628 256.119 246.277C257.758 241.926 259.248 237.575 260.887 233.068L274.745 191.574C276.384 187.068 277.874 182.25 279.513 177.277C281.153 172.304 282.791 167.175 284.282 161.892C285.921 156.763 287.56 151.479 289.05 146.506C290.689 141.378 292.328 136.56 293.967 132.209L312.892 191.574L327.048 233.068C328.538 237.575 330.177 241.926 331.667 246.277C333.306 250.628 334.945 255.135 336.584 259.487C337.18 261.196 337.776 262.595 338.819 263.216C339.862 264.149 341.501 264.304 343.439 264.304H379.201C381.436 264.304 382.926 263.838 383.969 262.751C384.714 261.663 385.012 260.264 384.417 258.554Z" fill="#008041"/>
<path d="M881.065 258.554L818.632 91.4924C814.16 79.3706 802.984 71.4449 790.618 71.4449C778.101 71.4449 766.925 79.526 762.454 91.6477L700.464 259.176C699.571 260.885 699.869 262.284 700.912 263.061C701.956 263.994 703.448 264.304 704.789 264.304H741.594C744.724 264.304 746.957 262.751 748.001 259.487C749.488 255.135 751.131 250.628 752.77 246.277C754.408 241.926 755.895 237.575 757.539 233.068L771.397 191.574C773.035 187.068 774.522 182.25 776.166 177.277C777.804 172.304 779.442 167.175 780.929 161.892C782.573 156.763 784.211 151.479 785.698 146.506C787.337 141.378 788.98 136.56 790.618 132.209L809.542 191.574L823.698 233.068C825.185 237.575 826.828 241.926 828.316 246.277C829.954 250.628 831.597 255.135 833.236 259.487C833.83 261.196 834.425 262.595 835.469 263.216C836.512 264.149 838.151 264.304 840.086 264.304H875.853C878.086 264.304 879.578 263.838 880.617 262.751C881.363 261.663 881.66 260.264 881.065 258.554Z" fill="#008041"/>
<path d="M528.371 220.014C527.328 218.926 525.841 218.459 524.5 218.459H455.954V77.0396C455.954 75.3301 455.358 73.9314 454.017 72.999C452.974 71.9111 451.484 71.4449 450.143 71.4449H413.337C411.4 71.4449 410.208 71.9111 409.165 73.1544C408.122 74.2422 407.675 75.4855 407.675 77.0396V258.71C407.675 262.595 409.612 264.304 413.039 264.304H524.348C525.987 264.304 527.479 263.683 528.522 262.284C529.415 261.196 530.015 259.953 530.015 258.399V224.209C530.161 222.5 529.415 221.101 528.371 220.014Z" fill="#008041"/>
<path d="M677.224 220.014C676.186 218.926 674.991 218.459 673.499 218.459H604.955V77.0396C604.809 75.3301 604.063 73.9314 602.868 72.999C601.83 71.9111 600.635 71.4449 599.143 71.4449H562.192C560.553 71.4449 559.061 71.9111 558.315 73.1544C557.272 74.2422 556.677 75.4855 556.677 77.0396V258.71C556.677 262.595 558.613 264.304 562.338 264.304H673.65C675.288 264.304 676.629 263.683 677.527 262.284C678.565 261.196 679.014 259.953 679.014 258.399V224.209C678.868 222.5 678.268 221.101 677.224 220.014Z" fill="#008041"/>
<path d="M181.166 258.864L121.71 165.775C121.561 165.931 121.561 165.931 121.264 166.242C108.747 177.275 94.4415 184.424 80.5836 189.242C84.7561 195.769 88.6301 201.519 92.0576 207.424C95.6337 213.33 99.0611 218.924 102.488 224.519C106.064 230.425 109.342 236.019 113.068 241.614C116.644 247.519 120.816 253.269 125.138 259.641C126.032 261.195 127.224 262.283 128.416 263.06C129.906 263.992 131.247 264.303 132.588 264.303H179.676C181.612 264.303 182.357 263.682 182.357 262.283C182.357 261.506 181.91 260.418 181.166 258.864Z" fill="#008041"/>
<path d="M64.9355 148.526V77.3503C64.9355 75.6409 64.3397 74.0868 62.8495 73.3098C61.3595 72.0665 60.1674 71.4449 58.8263 71.4449H22.1698C20.5307 71.4449 19.0406 72.0665 18.1465 73.1544C17.1035 74.2422 16.6564 75.7963 16.6564 77.1949V152.256V195.304V258.554C16.6564 262.44 18.5936 264.149 22.3188 264.149H58.8263C62.7008 264.149 64.7868 262.44 64.7868 258.554V193.128L64.9355 148.526Z" fill="#008041"/>
<path d="M161.057 77.5058C159.567 114.803 144.219 145.263 121.867 165.776C121.718 165.932 121.718 165.932 121.42 166.243C108.903 177.277 94.5983 184.425 80.7403 189.243H80.5911C75.3761 190.797 70.1606 192.04 65.0943 193.128C52.5774 195.77 41.2527 196.392 32.014 196.392C25.6066 196.392 20.3912 195.926 16.815 195.459V152.412C22.6264 152.878 43.7858 154.587 64.9451 148.526C75.3761 145.729 85.5087 141.223 93.8532 133.763C94.0024 133.607 94.0024 133.607 94.3003 133.297C107.86 121.02 118.291 101.594 119.483 77.0396C119.483 73.9314 121.718 71.4449 124.698 71.4449H155.394C158.524 71.4449 161.057 74.2422 161.057 77.5058Z" fill="url(#paint0_linear_464_129)"/>
</g>
<path d="M65.975 557.65L29.05 463.5H5.25L56.175 586.875H75.075L126 463.5H102.725L65.975 557.65ZM237.825 463.5H147V586H238.7V566.75H168.525V533.85H229.95V514.6H168.525V482.75H237.825V463.5ZM344.211 534.375V586H365.736V463.5H344.211V514.425H285.761V463.5H264.236V586H285.761V534.375H344.211ZM398.42 463.5V586H419.945V463.5H398.42ZM559.312 566.4L545.487 552.4C540.237 557.3 534.929 561.208 529.562 564.125C524.196 566.925 517.779 568.325 510.312 568.325C504.479 568.325 499.054 567.217 494.037 565C489.137 562.667 484.879 559.517 481.262 555.55C477.646 551.583 474.846 546.975 472.862 541.725C470.879 536.358 469.887 530.642 469.887 524.575C469.887 518.508 470.879 512.85 472.862 507.6C474.846 502.35 477.646 497.8 481.262 493.95C484.879 489.983 489.137 486.892 494.037 484.675C499.054 482.342 504.479 481.175 510.312 481.175C517.312 481.175 523.554 482.575 529.037 485.375C534.521 488.175 539.712 491.85 544.612 496.4L558.437 480.475C555.521 477.675 552.429 475.108 549.162 472.775C545.896 470.442 542.337 468.458 538.487 466.825C534.637 465.075 530.379 463.733 525.712 462.8C521.162 461.867 516.087 461.4 510.487 461.4C501.154 461.4 492.637 463.092 484.937 466.475C477.237 469.742 470.587 474.292 464.987 480.125C459.387 485.842 455.012 492.55 451.862 500.25C448.829 507.95 447.312 516.175 447.312 524.925C447.312 533.792 448.887 542.075 452.037 549.775C455.187 557.475 459.504 564.183 464.987 569.9C470.587 575.5 477.179 579.933 484.762 583.2C492.346 586.467 500.629 588.1 509.612 588.1C515.329 588.1 520.521 587.575 525.187 586.525C529.971 585.592 534.346 584.192 538.312 582.325C542.279 580.342 545.954 578.067 549.337 575.5C552.837 572.817 556.162 569.783 559.312 566.4ZM581.937 586H667.862V566.4H603.462V463.5H581.937V586ZM781.111 463.5H690.286V586H781.986V566.75H711.811V533.85H773.236V514.6H711.811V482.75H781.111V463.5ZM859.988 586H945.913V566.4H881.513V463.5H859.988V586ZM1084.01 524.575C1084.01 515.942 1082.43 507.775 1079.28 500.075C1076.13 492.375 1071.76 485.667 1066.16 479.95C1060.56 474.233 1053.85 469.742 1046.03 466.475C1038.21 463.092 1029.58 461.4 1020.13 461.4C1010.68 461.4 1002.05 463.092 994.231 466.475C986.414 469.858 979.648 474.467 973.931 480.3C968.214 486.017 963.781 492.725 960.631 500.425C957.481 508.125 955.906 516.292 955.906 524.925C955.906 533.558 957.481 541.725 960.631 549.425C963.781 557.125 968.156 563.833 973.756 569.55C979.356 575.267 986.064 579.817 993.881 583.2C1001.7 586.467 1010.33 588.1 1019.78 588.1C1029.23 588.1 1037.86 586.408 1045.68 583.025C1053.5 579.642 1060.26 575.092 1065.98 569.375C1071.7 563.542 1076.13 556.775 1079.28 549.075C1082.43 541.375 1084.01 533.208 1084.01 524.575ZM1061.43 524.925C1061.43 530.875 1060.38 536.533 1058.28 541.9C1056.3 547.15 1053.5 551.758 1049.88 555.725C1046.26 559.575 1041.89 562.667 1036.76 565C1031.74 567.217 1026.2 568.325 1020.13 568.325C1014.06 568.325 1008.46 567.158 1003.33 564.825C998.198 562.492 993.764 559.342 990.031 555.375C986.414 551.408 983.556 546.8 981.456 541.55C979.473 536.183 978.481 530.525 978.481 524.575C978.481 518.625 979.473 513.025 981.456 507.775C983.556 502.408 986.414 497.8 990.031 493.95C993.648 489.983 997.964 486.892 1002.98 484.675C1008.11 482.342 1013.71 481.175 1019.78 481.175C1025.85 481.175 1031.45 482.342 1036.58 484.675C1041.71 487.008 1046.09 490.158 1049.71 494.125C1053.44 498.092 1056.3 502.758 1058.28 508.125C1060.38 513.375 1061.43 518.975 1061.43 524.925ZM1219.21 569.025V517.575H1167.06V536.3H1198.39V559.225C1194.65 562.025 1190.22 564.3 1185.09 566.05C1180.07 567.683 1174.65 568.5 1168.81 568.5C1162.51 568.5 1156.8 567.392 1151.66 565.175C1146.65 562.958 1142.27 559.925 1138.54 556.075C1134.92 552.108 1132.12 547.442 1130.14 542.075C1128.15 536.708 1127.16 530.875 1127.16 524.575C1127.16 518.625 1128.15 513.025 1130.14 507.775C1132.24 502.525 1135.04 497.917 1138.54 493.95C1142.15 489.983 1146.35 486.892 1151.14 484.675C1156.04 482.342 1161.29 481.175 1166.89 481.175C1170.74 481.175 1174.24 481.525 1177.39 482.225C1180.65 482.808 1183.63 483.683 1186.31 484.85C1189 485.9 1191.56 487.242 1194.01 488.875C1196.46 490.508 1198.85 492.317 1201.19 494.3L1214.84 478.025C1211.69 475.342 1208.42 473.008 1205.04 471.025C1201.77 468.925 1198.27 467.175 1194.54 465.775C1190.8 464.375 1186.72 463.325 1182.29 462.625C1177.97 461.808 1173.13 461.4 1167.76 461.4C1158.55 461.4 1150.03 463.092 1142.21 466.475C1134.51 469.858 1127.86 474.467 1122.26 480.3C1116.66 486.017 1112.29 492.725 1109.14 500.425C1106.1 508.125 1104.59 516.292 1104.59 524.925C1104.59 533.908 1106.1 542.25 1109.14 549.95C1112.17 557.65 1116.43 564.358 1121.91 570.075C1127.51 575.675 1134.22 580.108 1142.04 583.375C1149.85 586.525 1158.55 588.1 1168.11 588.1C1173.48 588.1 1178.61 587.575 1183.51 586.525C1188.41 585.592 1192.96 584.25 1197.16 582.5C1201.48 580.75 1205.45 578.708 1209.06 576.375C1212.8 574.042 1216.18 571.592 1219.21 569.025ZM1248.47 463.5V586H1269.99V463.5H1248.47ZM1320.99 495.525C1320.99 491.442 1322.74 488 1326.24 485.2C1329.74 482.283 1334.64 480.825 1340.94 480.825C1346.54 480.825 1352.08 481.933 1357.56 484.15C1363.04 486.25 1368.59 489.342 1374.19 493.425L1385.74 477.15C1379.44 472.133 1372.67 468.342 1365.44 465.775C1358.32 463.092 1350.27 461.75 1341.29 461.75C1335.22 461.75 1329.62 462.625 1324.49 464.375C1319.35 466.008 1314.92 468.4 1311.19 471.55C1307.57 474.7 1304.71 478.492 1302.61 482.925C1300.51 487.242 1299.46 492.083 1299.46 497.45C1299.46 503.167 1300.34 508.008 1302.09 511.975C1303.95 515.942 1306.58 519.325 1309.96 522.125C1313.46 524.925 1317.72 527.258 1322.74 529.125C1327.87 530.992 1333.7 532.683 1340.24 534.2C1345.95 535.6 1350.56 536.942 1354.06 538.225C1357.68 539.508 1360.48 540.908 1362.46 542.425C1364.56 543.825 1365.96 545.4 1366.66 547.15C1367.48 548.9 1367.89 550.883 1367.89 553.1C1367.89 557.883 1365.9 561.675 1361.94 564.475C1358.09 567.275 1352.84 568.675 1346.19 568.675C1338.49 568.675 1331.6 567.333 1325.54 564.65C1319.47 561.85 1313.46 557.883 1307.51 552.75L1294.56 568.15C1301.91 574.8 1309.9 579.758 1318.54 583.025C1327.17 586.175 1336.21 587.75 1345.66 587.75C1352.08 587.75 1357.97 586.933 1363.34 585.3C1368.7 583.667 1373.31 581.275 1377.16 578.125C1381.01 574.975 1383.99 571.125 1386.09 566.575C1388.3 562.025 1389.41 556.833 1389.41 551C1389.41 545.867 1388.54 541.433 1386.79 537.7C1385.15 533.85 1382.7 530.525 1379.44 527.725C1376.17 524.808 1372.03 522.358 1367.01 520.375C1362.11 518.392 1356.45 516.583 1350.04 514.95C1344.2 513.55 1339.36 512.208 1335.51 510.925C1331.78 509.642 1328.8 508.242 1326.59 506.725C1324.49 505.208 1323.03 503.575 1322.21 501.825C1321.39 500.075 1320.99 497.975 1320.99 495.525ZM1463.96 483.45H1502.81V463.5H1403.41V483.45H1442.26V586H1463.96V483.45ZM1526.86 463.5V586H1548.39V463.5H1526.86ZM1687.75 566.4L1673.93 552.4C1668.68 557.3 1663.37 561.208 1658 564.125C1652.64 566.925 1646.22 568.325 1638.75 568.325C1632.92 568.325 1627.5 567.217 1622.48 565C1617.58 562.667 1613.32 559.517 1609.7 555.55C1606.09 551.583 1603.29 546.975 1601.3 541.725C1599.32 536.358 1598.33 530.642 1598.33 524.575C1598.33 518.508 1599.32 512.85 1601.3 507.6C1603.29 502.35 1606.09 497.8 1609.7 493.95C1613.32 489.983 1617.58 486.892 1622.48 484.675C1627.5 482.342 1632.92 481.175 1638.75 481.175C1645.75 481.175 1652 482.575 1657.48 485.375C1662.96 488.175 1668.15 491.85 1673.05 496.4L1686.88 480.475C1683.96 477.675 1680.87 475.108 1677.6 472.775C1674.34 470.442 1670.78 468.458 1666.93 466.825C1663.08 465.075 1658.82 463.733 1654.15 462.8C1649.6 461.867 1644.53 461.4 1638.93 461.4C1629.6 461.4 1621.08 463.092 1613.38 466.475C1605.68 469.742 1599.03 474.292 1593.43 480.125C1587.83 485.842 1583.45 492.55 1580.3 500.25C1577.27 507.95 1575.75 516.175 1575.75 524.925C1575.75 533.792 1577.33 542.075 1580.48 549.775C1583.63 557.475 1587.95 564.183 1593.43 569.9C1599.03 575.5 1605.62 579.933 1613.2 583.2C1620.79 586.467 1629.07 588.1 1638.05 588.1C1643.77 588.1 1648.96 587.575 1653.63 586.525C1658.41 585.592 1662.79 584.192 1666.75 582.325C1670.72 580.342 1674.4 578.067 1677.78 575.5C1681.28 572.817 1684.6 569.783 1687.75 566.4Z" fill="#DDA842"/>
<defs>
<linearGradient id="paint0_linear_464_129" x1="16.7304" y1="133.933" x2="160.992" y2="133.933" gradientUnits="userSpaceOnUse">
<stop stop-color="#C67D29"/>
<stop offset="0.2865" stop-color="white"/>
<stop offset="0.5056" stop-color="#FDDC60"/>
<stop offset="1" stop-color="#BD6828"/>
</linearGradient>
<clipPath id="clip0_464_129">
<rect width="873.619" height="277.556" fill="white" transform="translate(11 71.4449)"/>
</clipPath>
</defs>
</svg>
