<svg width="472" height="538" viewBox="0 0 472 538" fill="none" xmlns="http://www.w3.org/2000/svg">
<path d="M180.361 44.3625C181.622 37.5963 189.533 34.6261 193.778 39.3249L420.109 289.838C423.921 294.057 421.871 301.455 416.312 303.542L122.755 413.766C117.197 415.853 112.004 411.175 113.136 405.1L180.361 44.3625Z" fill="#DDA842"/>
<path d="M203.622 17.3625C204.882 10.5963 212.793 7.62608 217.038 12.3249L443.37 262.838C447.181 267.057 445.131 274.455 439.573 276.542L146.016 386.766C140.457 388.853 135.264 384.175 136.396 378.1L203.622 17.3625Z" fill="#2C4D45"/>
<path d="M203.622 17.3625C204.882 10.5963 212.793 7.62608 217.038 12.3249L443.37 262.838C447.181 267.057 445.131 274.455 439.573 276.542L146.016 386.766C140.457 388.853 135.264 384.175 136.396 378.1L203.622 17.3625Z" fill="black" fill-opacity="0.2"/>
</svg>
